#!OML:ASF E:/inclinewalkrobotboard/Project1/Captureday1/Session1/subject1.ASF
:FULLY-SPECIFIED
:DEGREES
63
root 0 0 0 -2.087365617586572 -5.983538122002701 -6.641847218612786
lowerback 11.7809773176939 2.5102366792565687 6.171741873367198
upperback 1.6014986585059463 4.121340248995597 1.6169132064356664
thorax -4.729303648470977 1.9104482687405961 -2.355013266744519
lowerneck -16.899790515575358 -3.561558345983327 -2.1896396263146487
upperneck 21.287922118988376 -4.6642958678196145 0.9751265124933097
head 9.52952457492287 -2.2240389634075832 0.07363667054617218
rclavicle -3.428346382301712E-15 1.7340492716092707E-15
rhumerus -28.697140361634805 -13.646371295668171 -82.59223388843938
rradius 28.82639255879707
rwrist 8.91663458980064
rhand -20.152687100571523 29.7817757267594
rfingers 7.125020000000003
rthumb 6.2139636673163805 -0.236633628518355
lclavicle -7.390600721120883E-15 9.670119826357755E-16
lhumerus -30.57761711984253 0.4910501869382258 85.59551775487336
lradius 24.086557953979245
lwrist 5.064367520531645
lhand -28.015099555651798 26.705730190269588
lfingers 7.125020000000046
lthumb -1.408933856175505 56.7447386622628
rfemur 0.4314770001314798 7.567770039730815 32.84635896788375
rtibia 28.832275825760036
rfoot -17.171759053581 -5.930041939545458
rtoes -0.6410394414583875
lfemur -27.077867608348477 -3.0777286513072486 -13.375475441318756
ltibia 23.968042290456147
lfoot -8.266051600050048 4.434263529860883
ltoes -2.9751627021409845
64
root 0 0 0 -2.143435965250874 -5.939011218644943 -6.2423366746805975
lowerback 11.768010788112253 2.568081269840407 5.9229051922272875
upperback 1.669930359727121 4.141998667813625 1.3996912217285913
thorax -4.658575709003296 1.9240944486162845 -2.440596623203168
lowerneck -16.77138057066123 -3.5877350048798364 -2.2747980258194014
upperneck 20.82068304145023 -4.735278103927301 1.1495681774160438
head 9.302247808899956 -2.247592459851338 0.14243930049583578
rclavicle -2.9999184150108992E-15 1.7310408798281065E-15
rhumerus -28.9124077255267 -14.610272814718861 -82.61270991909642
rradius 28.60135090485186
rwrist 9.861863370004563
rhand -20.309699310401953 29.43531292721635
rfingers 7.1250199999999975
rthumb 6.062409259669733 -0.6183626929947295
lclavicle -7.115562816216007E-15 9.494135240194778E-16
lhumerus -30.975099627078066 1.1307378114324091 85.04715685585998
lradius 23.599446086918814
lwrist 4.685428523465662
lhand -27.98809021721066 26.80541330111551
lfingers 7.125020000000046
lthumb -1.38447202028361 56.83303123690833
rfemur 0.7390357274863684 6.807736256127345 30.025137063354833
rtibia 27.37819259838303
rfoot -14.834471427329282 -5.035488429323083
rtoes -1.4215504034329542
lfemur -24.87044755595495 -3.5842251714468247 -14.749250324699828
ltibia 22.31229243742852
lfoot -8.622427771951166 4.143901779981235
ltoes -0.5663117033655851
65
root 0 0 0 -2.279220264641859 -5.833514667571832 -5.709243478343977
lowerback 11.705611889455604 2.60456202557265 5.515495512036308
upperback 1.7670144641665997 4.120771995206129 1.193251958487289
thorax -4.526436306343698 1.9204960373004596 -2.416850270006728
lowerneck -16.63086283269176 -3.6209551959506503 -2.403731707000081
upperneck 20.4858005937574 -4.8117091283532005 1.376995759003851
head 9.11943700629142 -2.271683797929525 0.23286345594283808
rclavicle -2.507917636831577E-15 1.7214618120626684E-15
rhumerus -29.186071983493726 -15.668784508912873 -82.5533489264483
rradius 28.113978176872997
rwrist 10.800467698923217
rhand -20.33505865396418 28.996299456661617
rfingers 7.125019999999995
rthumb 6.037700881344568 -1.0716732908210602
lclavicle -6.633579281508575E-15 9.933966764469014E-16
lhumerus -31.65048534109341 1.9724563155670296 84.39890167524548
lradius 23.006409713121577
lwrist 4.202862863027466
lhand -27.89056856204978 26.877429644424662
lfingers 7.125020000000047
lthumb -1.2920486720791713 56.886616862148784
rfemur 0.6118143369066029 5.642864338078765 27.070742276626174
rtibia 30.11946771771685
rfoot -10.368992798592899 -3.7588174478315537
rtoes -0.3160622191509732
lfemur -22.919559896153405 -3.814593445009586 -15.64508229810096
ltibia 21.734866789594548
lfoot -8.919685724957532 3.8132875894228038
ltoes 0.1554278774207276
66
root 0 0 0 -2.5871778888288577 -5.6045534435522315 -4.721480737124756
lowerback 11.683081374850312 2.569165175704125 4.618687298252801
upperback 1.958277293148638 3.955218377778614 0.9740661366717362
thorax -4.314204285421804 1.8559884639788025 -2.1082059909518502
lowerneck -16.45490955202843 -3.6585303068789536 -2.568733979962432
upperneck 20.646936960480055 -4.884303788487128 1.609348975079537
head 9.108532774721139 -2.291199296757753 0.3246318757375105
rclavicle -2.2171720757358113E-15 1.7238698084523785E-15
rhumerus -29.564566453324243 -16.843171882770974 -82.38540417670511
rradius 27.405612853728687
rwrist 11.618674339892149
rhand -20.262671756349327 28.485417217343766
rfingers 7.125019999999995
rthumb 6.107721124979459 -1.583569221074569
lclavicle -6.2269592851309405E-15 1.0356859302101894E-15
lhumerus -32.59388010233084 3.0157134176952507 83.71313889203668
lradius 22.261734867359745
lwrist 3.617127370639747
lhand -27.729958349451238 26.947856936410894
lfingers 7.125020000000049
lthumb -1.1397432656573256 56.931040463907145
rfemur -0.47283224721263295 3.4193275328311885 23.009507541247494
rtibia 40.86034726159848
rfoot -1.3791097379923651 -1.7263755709936346
rtoes 4.3003434031027155
lfemur -20.472796163199817 -3.8903686057810565 -16.647785511204013
ltibia 21.5290057116433
lfoot -9.177371894236266 3.2601488422109473
ltoes 0.21831815191163173
67
root 0 0 0 -4.948772959111741 -4.687068937696177 0.37922166647281363
lowerback 13.505279100970164 1.5542481213160793 -0.6129627671927169
upperback 2.5973483816191307 1.9988701174882215 0.31635859053382154
thorax -4.716144745293643 0.9958401349640731 0.43940312021063127
lowerneck -15.870688925672347 -3.564066624110609 -2.4660170695268717
upperneck 16.972890094712405 -4.633805744128858 1.6972385148255906
head 7.887929151241093 -2.1978300264503727 0.4046890269099135
rclavicle -2.9007767302199896E-15 2.1137575445271654E-15
rhumerus -30.491219545405286 -19.039424016510623 -81.93517667777715
rradius 25.85111495875003
rwrist 12.448646932966732
rhand -20.06485108706992 27.60041392618607
rfingers 7.125019999999997
rthumb 6.300508359679581 -2.459809720608625
lclavicle -6.912753010643701E-15 1.4353404355474954E-15
lhumerus -32.52420030024279 3.1250066956622127 83.44966984182695
lradius 22.203553212917026
lwrist 3.5831892154823537
lhand -27.802098108372256 26.976261532038066
lfingers 7.125020000000051
lthumb -1.2149795371422503 56.958985679711496
rfemur -16.595557035001086 0.842034575330971 20.29631301828263
rtibia 60.63753693893032
rfoot 5.945697216499466 -3.6745755316478723
rtoes 9.88595647373131
lfemur -8.08617161148348 -4.209825842397573 -22.190575953348173
ltibia 19.656077707204375
lfoot -11.819368844987633 1.3799593353932407
ltoes -0.2402844374866433
68
root 0 0 0 -4.95369620863373 -3.840151842516729 2.76082201805958
lowerback 13.458269304481782 0.9053130861722717 -3.0319967676422284
upperback 2.393266525431586 0.8429022568088862 0.1578837781043555
thorax -4.892440148457702 0.48779771138491357 1.7981160203192879
lowerneck -15.080607436158884 -3.2596902899873283 -2.532852085446497
upperneck 16.75265871626543 -4.183537930341115 1.9666515610448991
head 7.685984350540131 -1.9866187639414048 0.5690038256488079
rclavicle -2.3737797443477526E-15 3.2466301591242145E-15
rhumerus -30.86729602566666 -20.68874702545665 -81.38027115239053
rradius 25.121854402190408
rwrist 12.617354900794755
rhand -19.967450337528447 26.855827954667163
rfingers 7.125019999999999
rthumb 6.394356932935246 -3.211839332922871
lclavicle -5.656720983936139E-15 2.9721890665082007E-15
lhumerus -30.165452817647083 0.6106831752793574 83.68966725457499
lradius 24.789226844003167
lwrist 5.171826004370876
lhand -28.2690329459637 26.67841290001612
lfingers 7.125020000000041
lthumb -1.6625277050351617 56.71472543994105
rfemur -22.24109742434518 -0.39659474452412047 16.77136774671646
rtibia 60.901960440451134
rfoot 6.403657021282939 -4.614219316494218
rtoes 9.281055707046663
lfemur 2.1925705973957887 -4.7405823407564585 -26.69418545488744
ltibia 18.409128063717194
lfoot -15.369910429718349 0.724875635558019
ltoes -0.29363657507567
